<svg width="161" height="55" viewBox="0 0 161 55" fill="none" xmlns="http://www.w3.org/2000/svg">
<path d="M134.452 38.7939C134.257 38.2568 134.16 37.6465 134.16 36.9629C134.16 36.263 134.273 35.4899 134.501 34.6436C134.745 33.7809 135.055 32.8857 135.429 31.958C135.803 31.0303 136.21 30.0781 136.65 29.1016L137.968 26.1719C139.661 22.4121 140.287 20.1823 139.848 19.4824C139.653 19.1732 139.286 18.8639 138.749 18.5547C138.554 18.4408 138.456 18.2454 138.456 17.9688C138.456 17.6758 138.57 17.3991 138.798 17.1387C139.042 16.8783 139.352 16.6504 139.726 16.4551C140.523 16.0807 141.321 15.8936 142.118 15.8936C142.916 15.8936 143.518 15.9831 143.925 16.1621C144.348 16.3249 144.69 16.5365 144.951 16.7969C145.488 17.334 145.756 17.9281 145.756 18.5791C145.756 19.2301 145.65 19.9626 145.439 20.7764C145.227 21.5739 144.951 22.4447 144.609 23.3887C144.267 24.3327 143.893 25.3092 143.486 26.3184C142.363 28.9551 141.606 30.6966 141.215 31.543L140.312 33.4229C139.807 34.5459 139.555 35.3353 139.555 35.791C139.555 36.2467 139.628 36.5723 139.775 36.7676C139.921 36.9466 140.182 37.0361 140.556 37.0361C140.947 37.0361 141.37 36.8896 141.826 36.5967C142.298 36.3037 142.802 35.9131 143.339 35.4248C143.876 34.9365 144.43 34.375 144.999 33.7402C145.585 33.0892 146.155 32.4137 146.708 31.7139C148.157 29.9235 149.231 28.3854 149.931 27.0996C153.447 20.6217 155.31 17.2363 155.522 16.9434C156.059 16.2435 156.596 15.8936 157.133 15.8936C157.687 15.8936 158.167 15.9587 158.574 16.0889C158.98 16.2028 159.33 16.3737 159.623 16.6016C160.274 17.0736 160.47 17.6025 160.209 18.1885C159.965 18.7744 159.664 19.5801 159.306 20.6055C156.214 29.5736 154.203 35.1644 153.276 37.3779C152.364 39.5915 151.567 41.3656 150.883 42.7002C150.2 44.0511 149.394 45.4102 148.466 46.7773C147.555 48.1445 146.578 49.3896 145.536 50.5127C143.16 53.0518 140.93 54.4108 138.847 54.5898C138.049 54.6549 137.415 54.541 136.943 54.248C136.129 53.7598 135.722 53.2959 135.722 52.8564C135.722 52.417 136.088 52.1077 136.821 51.9287C137.569 51.766 138.334 51.4242 139.116 50.9033C139.913 50.3988 140.678 49.8047 141.41 49.1211C143.559 47.0703 145.227 44.8405 146.415 42.4316C147.424 40.3158 148.238 38.3138 148.857 36.4258L150.761 30.6152C150.289 31.1849 149.768 31.8522 149.199 32.6172L147.441 34.9609C145.911 36.8978 144.641 38.2731 143.632 39.0869C141.712 40.6331 139.994 41.4062 138.481 41.4062C136.463 41.4062 135.12 40.5355 134.452 38.7939Z" fill="#069669"/>
<path d="M112.065 46.5332C112.065 46.1914 112.325 45.5078 112.846 44.4824C113.351 43.4733 113.904 42.1794 114.506 40.6006C115.125 39.0218 115.711 37.3779 116.264 35.6689C116.817 33.96 117.379 32.1289 117.949 30.1758L119.853 23.7305L117.314 24.4141C116.679 24.4141 116.158 24.0804 115.751 23.4131C115.654 23.234 115.605 23.0225 115.605 22.7783C115.605 22.5342 115.8 22.2493 116.191 21.9238C116.581 21.582 117.062 21.2646 117.631 20.9717C118.771 20.3857 119.942 19.9382 121.147 19.6289L121.367 18.9453C121.806 17.5781 122.221 16.1621 122.612 14.6973C123.019 13.2161 123.442 11.7757 123.881 10.376C124.337 8.97624 124.85 7.64974 125.419 6.39648C125.989 5.12695 126.656 4.02018 127.421 3.07617C129.114 1.02539 131.238 0 133.793 0C135.681 0 137.179 0.504557 138.285 1.51367C139.392 2.52279 139.946 3.88997 139.946 5.61523C139.946 7.4056 139.433 8.95996 138.408 10.2783C137.545 11.3688 136.585 11.9141 135.527 11.9141C134.208 11.9141 133.313 11.3118 132.841 10.1074C132.711 9.79818 132.646 9.53776 132.646 9.32617C132.646 8.9681 132.89 8.64258 133.378 8.34961C134.273 7.66602 134.9 6.75456 135.258 5.61523C135.372 5.25716 135.429 4.90723 135.429 4.56543C135.429 3.23079 134.908 2.56348 133.867 2.56348C132.434 2.56348 131.116 4.18294 129.911 7.42188C129.553 8.41471 129.195 9.50521 128.837 10.6934L126.542 18.4814C128.023 18.2536 129.098 18.1396 129.765 18.1396C130.449 18.1396 131.051 18.221 131.572 18.3838C132.092 18.5303 132.564 18.7419 132.988 19.0186C133.948 19.6533 134.428 20.4346 134.428 21.3623C134.428 22.29 133.972 22.7539 133.061 22.7539L129.96 22.6318C128.268 22.6318 126.705 22.7051 125.273 22.8516L123.271 29.9316C121.952 34.7331 120.878 38.2243 120.048 40.4053C119.234 42.5863 118.437 44.4336 117.656 45.9473C116.923 47.3307 115.808 48.0225 114.311 48.0225C112.813 48.0225 112.065 47.526 112.065 46.5332Z" fill="#069669"/>
<path d="M113.701 10.1807C113.342 10.555 112.936 10.8643 112.48 11.1084C112.024 11.3363 111.544 11.4827 111.039 11.5479C110.535 11.5967 110.055 11.5153 109.599 11.3037C109.16 11.0921 108.777 10.791 108.452 10.4004C107.752 9.58659 107.402 8.76465 107.402 7.93457C107.402 7.10449 107.532 6.486 107.792 6.0791C108.069 5.65592 108.411 5.31413 108.818 5.05371C109.599 4.54915 110.331 4.29688 111.015 4.29688C111.715 4.29688 112.252 4.3457 112.626 4.44336C113.017 4.54102 113.375 4.70378 113.701 4.93164C114.498 5.46875 114.897 6.12793 114.897 6.90918C114.897 7.67415 114.783 8.31706 114.555 8.83789C114.343 9.34245 114.059 9.79004 113.701 10.1807ZM108.696 36.5967C109.119 36.5967 109.33 36.8734 109.33 37.4268C109.33 38.1592 108.997 38.916 108.329 39.6973C107.353 40.8366 106.043 41.4062 104.399 41.4062C102.511 41.4062 101.217 40.6413 100.517 39.1113C100.257 38.5742 100.126 37.9232 100.126 37.1582C100.126 36.3932 100.257 35.5469 100.517 34.6191C100.794 33.6751 101.127 32.6904 101.518 31.665C101.925 30.6234 102.364 29.5736 102.836 28.5156L104.13 25.4395C105.074 23.1445 105.546 21.6309 105.546 20.8984C105.546 20.166 105.465 19.6859 105.302 19.458C105.156 19.2139 104.993 19.0267 104.814 18.8965L104.326 18.5547C104.163 18.4408 104.081 18.2454 104.081 17.9688C104.081 17.6758 104.187 17.3991 104.399 17.1387C104.627 16.8783 104.92 16.6504 105.278 16.4551C106.01 16.0807 106.865 15.8936 107.841 15.8936C110.234 15.8936 111.43 16.5202 111.43 17.7734C111.43 19.2383 111.048 20.9147 110.283 22.8027C109.518 24.6745 108.867 26.1882 108.329 27.3438L106.865 30.7129C105.79 33.1868 105.253 34.9691 105.253 36.0596C105.253 36.7757 105.611 37.1338 106.327 37.1338C107.027 37.1338 107.556 37.0443 107.914 36.8652C108.272 36.6862 108.533 36.5967 108.696 36.5967Z" fill="#069669"/>
<path d="M87.7484 40.1855C87.3415 39.7624 87.0078 39.2253 86.7474 38.5742C86.5033 37.9069 86.3812 37.1419 86.3812 36.2793C86.3812 35.4004 86.5765 34.2285 86.9671 32.7637C87.374 31.2988 87.8867 29.6305 88.5052 27.7588L90.556 21.6797C93.4694 13.2161 95.154 6.67318 95.6097 2.05078C95.7562 0.683594 96.4235 0 97.6117 0C98.3604 0 98.9789 0.179036 99.4671 0.537109C100.411 1.25326 100.867 2.05078 100.834 2.92969C100.802 3.80859 100.647 4.88281 100.37 6.15234C100.094 7.4056 99.7357 8.78092 99.2962 10.2783C98.8568 11.7594 98.3522 13.3301 97.7826 14.9902L94.4134 24.9023C92.4766 30.5339 91.5081 34.1715 91.5081 35.8154C91.5081 36.6943 91.8662 37.1338 92.5824 37.1338C93.266 37.1338 93.8845 36.9873 94.4378 36.6943C95.0075 36.4014 95.3737 36.2549 95.5365 36.2549C95.8783 36.2549 96.0492 36.4258 96.0492 36.7676C96.0492 38.2161 95.3086 39.4287 93.8275 40.4053C92.8346 41.0726 91.9232 41.4062 91.0931 41.4062C90.2793 41.4062 89.6201 41.3086 89.1156 41.1133C88.611 40.918 88.1553 40.6087 87.7484 40.1855Z" fill="#069669"/>
<path d="M82.7923 34.7656C83.2643 34.7656 83.5003 35.083 83.5003 35.7178C83.5003 36.2549 83.3376 36.7757 83.0121 37.2803C82.5726 38.2243 81.6937 39.1195 80.3753 39.9658C78.8779 40.9261 77.3724 41.4062 75.8587 41.4062C73.2383 41.4062 71.5781 40.2344 70.8783 37.8906C70.0482 35.1074 71.2933 29.2074 74.6136 20.1904C72.7419 20.0277 71.7246 19.7021 71.5619 19.2139C71.513 19.0674 71.4886 18.9128 71.4886 18.75C71.4886 18.571 71.5619 18.3675 71.7083 18.1396C71.8711 17.9118 72.0746 17.6921 72.3187 17.4805C72.8884 17.0085 73.4662 16.7725 74.0521 16.7725H75.9808C77.7386 12.6546 78.9919 10.3109 79.7406 9.74121C80.0986 9.48079 80.4974 9.35059 80.9369 9.35059C81.3763 9.35059 81.7425 9.40755 82.0355 9.52148C82.3285 9.63542 82.5889 9.79818 82.8167 10.0098C83.3376 10.498 83.598 11.0433 83.598 11.6455C83.598 11.971 83.5003 12.3454 83.305 12.7686L81.4984 16.6992H82.0843C83.0934 16.6992 83.9072 16.6911 84.5257 16.6748C84.5257 16.6748 84.9896 16.6667 85.9173 16.6504C86.2266 16.6341 86.6091 16.626 87.0648 16.626C87.5368 16.626 87.7728 16.7969 87.7728 17.1387C87.7728 19.2871 85.2337 20.3613 80.1556 20.3613H79.9603L78.3001 24.6582C76.4284 29.7363 75.4925 33.2926 75.4925 35.3271C75.4925 35.8968 75.6227 36.3444 75.8831 36.6699C76.1436 36.9792 76.6318 37.1338 77.348 37.1338C78.0641 37.1338 78.7152 37.0117 79.3011 36.7676C79.8871 36.5234 80.3997 36.2549 80.8392 35.9619C81.2787 35.6527 81.653 35.376 81.9622 35.1318C82.2878 34.8877 82.5645 34.7656 82.7923 34.7656Z" fill="#069669"/>
<path d="M64.8236 34.7656C65.2956 34.7656 65.5316 35.083 65.5316 35.7178C65.5316 36.2549 65.3688 36.7757 65.0433 37.2803C64.6039 38.2243 63.7249 39.1195 62.4066 39.9658C60.9092 40.9261 59.4037 41.4062 57.89 41.4062C55.2695 41.4062 53.6094 40.2344 52.9095 37.8906C52.0794 35.1074 53.3246 29.2074 56.6449 20.1904C54.7731 20.0277 53.7559 19.7021 53.5931 19.2139C53.5443 19.0674 53.5199 18.9128 53.5199 18.75C53.5199 18.571 53.5931 18.3675 53.7396 18.1396C53.9024 17.9118 54.1058 17.6921 54.3499 17.4805C54.9196 17.0085 55.4974 16.7725 56.0833 16.7725H58.0121C59.7699 12.6546 61.0231 10.3109 61.7718 9.74121C62.1299 9.48079 62.5287 9.35059 62.9681 9.35059C63.4076 9.35059 63.7738 9.40755 64.0667 9.52148C64.3597 9.63542 64.6201 9.79818 64.848 10.0098C65.3688 10.498 65.6292 11.0433 65.6292 11.6455C65.6292 11.971 65.5316 12.3454 65.3363 12.7686L63.5296 16.6992H64.1156C65.1247 16.6992 65.9385 16.6911 66.557 16.6748C66.557 16.6748 67.0208 16.6667 67.9486 16.6504C68.2578 16.6341 68.6403 16.626 69.096 16.626C69.568 16.626 69.804 16.7969 69.804 17.1387C69.804 19.2871 67.265 20.3613 62.1869 20.3613H61.9915L60.3314 24.6582C58.4596 29.7363 57.5238 33.2926 57.5238 35.3271C57.5238 35.8968 57.654 36.3444 57.9144 36.6699C58.1748 36.9792 58.6631 37.1338 59.3792 37.1338C60.0954 37.1338 60.7464 37.0117 61.3324 36.7676C61.9183 36.5234 62.431 36.2549 62.8705 35.9619C63.3099 35.6527 63.6843 35.376 63.9935 35.1318C64.319 34.8877 64.5957 34.7656 64.8236 34.7656Z" fill="#069669"/>
<path d="M27.2748 32.6172C27.3399 31.2012 27.5759 29.8503 27.9828 28.5645C28.3897 27.2624 28.9349 26.0091 29.6185 24.8047C30.3021 23.584 31.0996 22.4365 32.0111 21.3623C32.9388 20.2718 33.9398 19.3197 35.014 18.5059C37.3415 16.7643 39.6934 15.8936 42.0697 15.8936C44.8529 15.8936 46.7084 17.041 47.6361 19.3359C47.9616 20.1172 48.1162 21.0449 48.1 22.1191C48.0837 23.1771 47.8802 24.1618 47.4896 25.0732C47.099 25.9684 46.5537 26.7904 45.8539 27.5391C45.1703 28.2715 44.3483 28.9307 43.3881 29.5166C42.444 30.1025 41.4105 30.599 40.2875 31.0059C37.9763 31.8197 35.5023 32.2428 32.8656 32.2754C32.8005 32.5033 32.7598 32.8451 32.7435 33.3008C32.7272 33.7565 32.7761 34.2692 32.89 34.8389C33.0039 35.3923 33.1993 35.8887 33.4759 36.3281C34.0619 37.3047 34.9082 37.793 36.015 37.793C37.903 37.793 39.7422 37.2396 41.5326 36.1328C42.1673 35.7585 42.68 35.376 43.0707 34.9854C43.4776 34.5785 43.8275 34.375 44.1205 34.375C44.4134 34.375 44.6657 34.554 44.8773 34.9121C45.1052 35.2539 45.2191 35.6445 45.2191 36.084C45.2191 36.9466 44.975 37.6953 44.4867 38.3301C42.4359 40.3809 39.3841 41.4062 35.3314 41.4062C32.9388 41.4062 31.0183 40.6901 29.5697 39.2578C27.9421 37.6302 27.1771 35.4167 27.2748 32.6172ZM41.5326 19.1406C39.8236 19.1406 38.1797 20.3125 36.6009 22.6562C35.2663 24.6745 34.1921 27.0671 33.3783 29.834C36.0964 29.5573 38.4564 28.4831 40.4584 26.6113C42.2976 24.8535 43.2172 23.1689 43.2172 21.5576C43.2172 19.9463 42.6556 19.1406 41.5326 19.1406Z" fill="#069669"/>
<path d="M0.468113 37.5488C0.126316 36.6374 -0.0283062 35.5387 0.00424592 34.2529C0.036798 32.9508 0.215834 31.3883 0.541355 29.5654C0.883152 27.7425 1.39585 25.7894 2.07944 23.7061C3.65822 18.8721 5.80665 14.5996 8.52475 10.8887C8.99676 10.2539 9.48504 9.93652 9.9896 9.93652C10.5104 9.93652 11.015 10.0505 11.5033 10.2783C12.0078 10.5062 12.4473 10.7747 12.8216 11.084C13.7656 11.8652 14.0749 12.5 13.7494 12.9883C11.4544 16.6667 9.57456 19.987 8.10971 22.9492C11.8044 22.6888 15.0596 21.5169 17.8753 19.4336C20.9515 17.1712 22.4896 14.4206 22.4896 11.1816C22.4896 8.98438 21.3991 7.58464 19.2181 6.98242C18.5508 6.80339 17.7533 6.71387 16.8255 6.71387C15.9141 6.71387 14.9619 6.81152 13.9691 7.00684C12.9925 7.18587 12.0485 7.43815 11.1371 7.76367C9.33042 8.43099 7.6784 9.3099 6.181 10.4004C5.75783 10.7096 5.3672 10.8643 5.00913 10.8643C4.65106 10.8643 4.26043 10.7747 3.83725 10.5957C3.41408 10.4004 3.03973 10.1644 2.71421 9.8877C1.44468 8.81348 1.62371 7.69857 3.25132 6.54297C5.61134 4.88281 9.09442 3.80859 13.7005 3.32031C14.5632 3.23893 15.7106 3.19824 17.1429 3.19824C18.5915 3.19824 20.0645 3.43424 21.5619 3.90625C23.0755 4.37826 24.2881 5.01302 25.1996 5.81055C26.876 7.30794 27.7142 9.39128 27.7142 12.0605C27.7142 14.4694 26.7621 16.8457 24.8578 19.1895C23.1162 21.3542 20.8701 23.112 18.1195 24.4629C19.4378 25.0488 20.4225 25.8708 21.0736 26.9287C21.7409 27.9704 22.0583 29.1016 22.0257 30.3223C21.9932 31.5267 21.749 32.6416 21.2933 33.667C20.8539 34.6761 20.2516 35.5957 19.4867 36.4258C18.738 37.2396 17.8591 37.9639 16.8499 38.5986C15.8571 39.2171 14.8073 39.7298 13.7005 40.1367C11.4382 40.9831 9.14324 41.4062 6.81577 41.4062C3.54428 41.4062 1.4284 40.1204 0.468113 37.5488ZM6.37632 26.9043C5.13934 29.9805 4.4883 32.6579 4.42319 34.9365C4.39064 36.0433 4.65919 36.8978 5.22886 37.5C5.81479 38.0859 6.61232 38.3789 7.62143 38.3789C8.63055 38.3789 9.67221 38.1592 10.7464 37.7197C11.8207 37.2803 12.8054 36.6862 13.7005 35.9375C15.7513 34.2122 16.8093 32.2591 16.8744 30.0781C16.9232 28.0924 16.028 26.7415 14.1888 26.0254C13.6354 25.8138 13.0414 25.6755 12.4066 25.6104C11.6416 25.6429 10.5674 25.8382 9.18393 26.1963C7.81675 26.5544 6.88087 26.7904 6.37632 26.9043Z" fill="#069669"/>
</svg>
